<svg width="76" height="28" viewBox="0 0 76 28" fill="none" xmlns="http://www.w3.org/2000/svg">
<path d="M28.9543 19.755C27.7282 19.755 26.7343 18.7611 26.7343 17.535V8.54349C26.7343 7.28234 25.927 6.16281 24.7304 5.76458C24.6655 5.74299 24.681 5.64717 24.7494 5.64717H25.4685C27.3937 5.64717 28.9543 7.20782 28.9543 9.13299V19.755ZM28.9543 11.5934H27.8948C27.9789 10.3114 28.2396 9.2402 28.6768 8.37987C29.1309 7.51955 29.7364 6.87009 30.4932 6.43149C31.25 5.9929 32.1162 5.7736 33.0916 5.7736C34.0503 5.7736 34.866 5.95916 35.5387 6.33028C36.2114 6.68453 36.7244 7.21591 37.0776 7.92441C37.4476 8.63291 37.6326 9.51011 37.6326 10.556V15.3155L37.7302 16.3091C37.8644 17.6744 38.62 18.9019 39.7786 19.6366C39.8329 19.671 39.8085 19.755 39.7442 19.755H38.8307C36.7618 19.755 35.0846 18.0778 35.0846 16.0089V13.737C35.0846 13.0622 35.3032 9.75471 35.0846 9.2655C34.8828 8.75943 34.5632 8.37144 34.126 8.10153C33.7055 7.81476 33.1589 7.67137 32.4862 7.67137C31.9312 7.67137 31.435 7.78946 30.9978 8.02562C30.5605 8.24492 30.1905 8.54013 29.8877 8.91125C29.585 9.28237 29.3496 9.7041 29.1814 10.1764C29.03 10.6319 28.9543 11.1042 28.9543 11.5934Z" fill="#648169"/>
<path d="M64.4306 11.5646C64.4306 11.9865 64.5321 12.4022 64.7266 12.7766L65.2508 13.7857C65.9517 15.1349 65.7909 16.7705 64.8407 17.9573L63.521 19.6058C63.4714 19.6678 63.3773 19.6682 63.3271 19.6067L61.9844 17.9627C61.0142 16.7746 60.8438 15.1232 61.5509 13.7621L62.0628 12.7766C62.2573 12.4022 62.3588 11.9865 62.3588 11.5646C62.3588 11.0754 62.2446 10.6031 62.0932 10.1476C61.925 9.67528 61.6896 9.25355 61.3868 8.88243C61.0841 8.51131 60.7141 8.2161 60.2768 7.9968C59.8395 7.76063 59.3434 7.64255 58.7884 7.64255C58.1157 7.64255 57.5691 7.78594 57.1486 8.07271C56.7113 8.34262 56.3918 8.73061 56.19 9.23668C56.0189 9.61952 56.1156 13.269 56.1657 15.1613C56.1796 15.6871 56.19 16.0772 56.19 16.2239C56.19 18.1581 54.6219 19.7262 52.6877 19.7262H51.524C51.4616 19.7262 51.4369 19.6429 51.4881 19.6072C52.6633 18.788 53.4252 17.4931 53.566 16.0603L53.642 15.2866V10.5272C53.642 9.48128 53.827 8.60409 54.197 7.89559C54.5502 7.18708 55.0631 6.6557 55.7359 6.30145C56.4086 5.93033 57.2243 5.74477 58.1829 5.74477C59.1584 5.74477 60.0246 5.96407 60.7814 6.40267C61.5382 6.84127 62.1437 7.49073 62.5978 8.35105C63.0299 9.20133 63.2896 10.2576 63.3768 11.5198C63.3785 11.5449 63.3994 11.5646 63.4246 11.5646C63.4498 11.5646 63.4707 11.5449 63.4724 11.5198C63.5596 10.2576 63.8193 9.20133 64.2514 8.35105C64.7055 7.49073 65.311 6.84127 66.0678 6.40267C66.8247 5.96407 67.6908 5.74477 68.6663 5.74477C69.6249 5.74477 70.4406 5.93033 71.1133 6.30145C71.7861 6.6557 72.299 7.18708 72.6522 7.89559C73.0222 8.60409 73.2072 9.48128 73.2072 10.5272V15.2866L73.2832 16.0603C73.424 17.4931 74.1859 18.788 75.3611 19.6072C75.4123 19.6429 75.3876 19.7262 75.3251 19.7262H74.1615C72.2273 19.7262 70.6592 18.1581 70.6592 16.2239C70.6592 16.0772 70.6696 15.6871 70.6835 15.1613C70.7336 13.269 70.8303 9.61952 70.6592 9.23668C70.4574 8.73061 70.1379 8.34262 69.7006 8.07271C69.2801 7.78594 68.7335 7.64255 68.0608 7.64255C67.5058 7.64255 67.0097 7.76063 66.5724 7.9968C66.1351 8.2161 65.7651 8.51131 65.4624 8.88243C65.1596 9.25355 64.9242 9.67528 64.756 10.1476C64.6046 10.6031 64.4306 11.0754 64.4306 11.5646Z" fill="#648169"/>
<path d="M37.8892 5.83059C38.567 6.18824 39.9652 6.92607 39.9652 11.3692C39.9652 13.3864 40.1309 14.7551 40.3357 15.6764C40.623 16.9693 41.559 17.9719 42.604 18.7856C42.6798 18.8446 42.7564 18.9031 42.8333 18.9604C43.5982 19.5305 44.2689 20.4406 44.3012 21.3941C44.3067 21.5562 44.3125 21.7253 44.3185 21.9C44.3521 22.8823 44.3917 24.0371 44.4156 25.0755C44.4376 26.031 44.8469 26.9389 45.5592 27.5711C45.6042 27.6111 45.6717 27.6111 45.7167 27.5711C46.4291 26.9389 46.8383 26.031 46.8603 25.0755C46.8842 24.0371 46.9238 22.8823 46.9575 21.9C46.9635 21.7253 46.9693 21.5562 46.9747 21.3941C47.007 20.4406 47.6777 19.5305 48.4426 18.9604C48.5195 18.9031 48.5961 18.8446 48.672 18.7856C49.7169 17.9719 50.6529 16.9693 50.9402 15.6764C51.145 14.7551 51.3107 13.3864 51.3107 11.3692C51.3107 6.92607 52.7089 6.18824 53.3867 5.83059C53.3888 5.82947 53.3909 5.82836 53.393 5.82726C53.4956 5.77314 53.4578 5.66857 53.3429 5.68382C52.0887 5.85022 48.8443 6.56795 48.8443 9.10013V11.3692C48.8443 11.4704 48.8468 11.5854 48.8495 11.7122C48.8767 12.9665 48.929 15.3743 46.8388 16.9317C46.5497 17.1471 45.6399 17.9308 45.638 19.2292C45.6361 17.9308 44.7262 17.1471 44.4372 16.9317C42.347 15.3743 42.3992 12.9665 42.4264 11.7122C42.4291 11.5854 42.4316 11.4704 42.4316 11.3692V9.10013C42.4316 6.56795 39.1872 5.85022 37.933 5.68382C37.8181 5.66857 37.7804 5.77314 37.8829 5.82726C37.885 5.82837 37.8871 5.82947 37.8892 5.83059Z" fill="#648169"/>
<path d="M0.431644 14.3402C0.429696 14.3809 0.428711 14.4219 0.428711 14.4631C0.529621 16.1331 0.724679 17.2886 1.59255 18.2609C2.55119 19.2562 3.82938 19.7539 5.42712 19.7539C7.09213 19.7539 8.40396 19.2056 9.36261 18.1091C10.3381 16.9958 10.8258 15.486 10.8258 13.5798V4.15125C10.8258 2.71243 11.5539 1.38528 12.7364 0.608048C12.8469 0.535444 12.7977 0.35676 12.6664 0.371736C10.3243 0.638798 8.50487 2.62745 8.50487 5.04105V13.8328C8.50487 15.0642 8.23578 16.0258 7.69759 16.7174C7.15941 17.409 6.40258 17.7549 5.42712 17.7549C4.71136 17.7549 4.12216 17.5809 3.65954 17.2329C4.13897 17.2022 4.58809 17.0601 4.98132 16.8322C5.02997 16.8065 5.07778 16.7772 5.12446 16.7438C5.95054 16.2018 6.49606 15.2674 6.49606 14.2056C6.49606 12.5301 5.13784 11.1719 3.46239 11.1719C1.78693 11.1719 0.428711 12.5301 0.428711 14.2056C0.428711 14.2507 0.429695 14.2955 0.431644 14.3402Z" fill="#648169"/>
<path fill-rule="evenodd" clip-rule="evenodd" d="M13.615 10.1181C14.9355 8.59101 16.8185 7.59757 18.8374 7.59757C19.981 7.59757 20.8135 7.89278 21.3349 8.4832C21.8731 9.05675 22.1421 9.88334 22.1421 10.963V11.2676C20.8995 11.275 19.8063 11.3253 18.8626 11.4184C17.8367 11.5196 16.8528 11.7305 15.911 12.051C14.9187 12.3884 14.1703 12.886 13.6657 13.5439C13.178 14.185 12.9341 14.9694 12.9341 15.8972C12.9341 16.7406 13.1275 17.4491 13.5144 18.0227C13.9012 18.5962 14.4394 19.0264 15.1289 19.3132C15.8353 19.6 16.651 19.7433 17.576 19.7433C18.2151 19.7433 18.8542 19.6253 19.4933 19.3891C20.1324 19.1529 20.7294 18.7902 21.2844 18.301C21.6087 18.0236 21.8979 17.7 22.1519 17.3303C22.1922 18.6876 23.2071 19.7433 24.565 19.7433H25.2721C25.3482 19.7433 25.3804 19.6464 25.3194 19.6008C24.7525 19.1771 24.4091 18.5184 24.3911 17.8109C24.3764 17.2361 24.3622 16.5788 24.3622 16.2008V10.9124C24.3622 9.86647 24.1688 8.95554 23.7819 8.17956C23.3951 7.38671 22.8065 6.77099 22.016 6.33239C21.2256 5.8938 20.2333 5.6745 19.0392 5.6745C17.946 5.6745 17.0042 5.86006 16.2137 6.23118C15.4232 6.6023 14.7926 7.14211 14.3216 7.85061C13.8822 8.49596 13.582 9.27348 13.4208 10.1832C13.4107 10.2401 13.4812 10.273 13.5189 10.2292C13.5508 10.1923 13.5828 10.1552 13.615 10.1181ZM22.1421 13.5692V12.9379C20.793 12.9483 19.6746 13.0238 18.7869 13.1644C17.8451 13.2993 17.1135 13.5018 16.5921 13.7717C16.0707 14.0247 15.7091 14.3284 15.5073 14.6826C15.3055 15.0369 15.2046 15.4248 15.2046 15.8466C15.2046 16.4707 15.4401 16.9599 15.911 17.3142C16.3987 17.6516 17.0294 17.8203 17.803 17.8203C18.6271 17.8203 19.3671 17.6263 20.023 17.2383C20.679 16.8503 21.1919 16.3358 21.5619 15.6948C21.9487 15.0369 22.1421 14.3283 22.1421 13.5692Z" fill="#648169"/>
</svg>
