<svg fill="none" height="28" viewBox="0 0 76 28" width="76" xmlns="http://www.w3.org/2000/svg"><g fill="#3f5042"><path d="m29.3916 19.7047c-1.2267 0-2.2212-.9944-2.2212-2.2211v-8.99605c0-1.26178-.8077-2.38188-2.0049-2.78031-.0649-.0216-.0494-.11747.019-.11747h.7195c1.9261 0 3.4876 1.56144 3.4876 3.48757zm0-8.1657h-1.0601c.0841-1.2827.3449-2.35439.7824-3.21515.4543-.86076 1.0601-1.51054 1.8173-1.94936s1.6238-.65823 2.5997-.65823c.9592 0 1.7753.18565 2.4483.55696.6731.35443 1.1863.88608 1.5397 1.59494.3702.70885.5553 1.58649.5553 2.63294v4.7618l.0977.9941c.1342 1.3661.8902 2.5942 2.0494 3.3293.0543.0344.0299.1184-.0344.1184h-.914c-2.07 0-3.748-1.678-3.748-3.748v-2.2731c0-.6751.2188-3.98422 0-4.47367-.2019-.50633-.5216-.89452-.9591-1.16456-.4207-.28692-.9675-.43038-1.6406-.43038-.5553 0-1.0517.11814-1.4892.35443-.4375.21941-.8077.51477-1.1106.88608-.3028.3713-.5384.79324-.7067 1.2658-.1514.4557-.2271.9283-.2271 1.4177z"/><path d="m64.8857 11.5102c0 .4221.1016.838.2962 1.2126l.5244 1.0096c.7013 1.3499.5404 2.9863-.4103 4.1737l-1.3204 1.6493c-.0496.062-.1438.0625-.194.001l-1.3433-1.6449c-.9707-1.1887-1.1413-2.8409-.4338-4.2028l.5122-.9859c.1946-.3746.2962-.7905.2962-1.2126 0-.4895-.1143-.962-.2658-1.4177-.1682-.47259-.4038-.89453-.7067-1.26584s-.6731-.66667-1.1106-.88608c-.4375-.23628-.9339-.35443-1.4891-.35443-.6731 0-1.22.14346-1.6407.43038-.4375.27004-.7572.65823-.9591 1.16456-.1712.38303-.0744 4.03431-.0243 5.92761.014.526.0243.9163.0243 1.0631 0 1.9352-1.5688 3.5041-3.504 3.5041h-1.1643c-.0624 0-.0871-.0833-.0359-.119 1.1757-.8197 1.938-2.1153 2.0789-3.5488l.0761-.774v-4.7619c0-1.04639.1851-1.92402.5552-2.63288.3534-.70886.8666-1.24051 1.5397-1.59494.6731-.3713 1.4892-.55696 2.4483-.55696.9759 0 1.8425.21941 2.5997.65823s1.363 1.08861 1.8173 1.94936c.4324.85071.6922 1.90749.7794 3.17029.0018.0252.0227.0449.0479.0449s.0461-.0197.0478-.0449c.0873-1.2628.3471-2.31958.7795-3.17029.4543-.86075 1.06-1.51054 1.8173-1.94936.7572-.43882 1.6237-.65823 2.5997-.65823.9591 0 1.7752.18566 2.4483.55696.6731.35443 1.1863.88608 1.5396 1.59494.3702.70886.5553 1.58649.5553 2.63288v4.7619l.0761.774c.1408 1.4335.9032 2.7291 2.0789 3.5488.0512.0357.0265.119-.036.119h-1.1642c-1.9352 0-3.504-1.5689-3.504-3.5041 0-.1468.0103-.5371.0242-1.0631.0502-1.8933.147-5.54458-.0242-5.92761-.202-.50633-.5217-.89452-.9592-1.16456-.4206-.28692-.9675-.43038-1.6406-.43038-.5553 0-1.0516.11815-1.4891.35443-.4375.21941-.8077.51477-1.1106.88608s-.5385.79325-.7067 1.26584c-.1515.4557-.3256.9282-.3256 1.4177z"/><path d="m38.3309 5.77328c.6782.35784 2.0771 1.09603 2.0771 5.54142 0 2.0182.1658 3.3876.3707 4.3094.2874 1.2935 1.2239 2.2966 2.2694 3.1107.0759.0591.1525.1176.2294.1749.7653.5704 1.4363 1.481 1.4686 2.4349.0055.1622.0113.3314.0173.5061.0337.9829.0733 2.1382.0972 3.1772.022.9559.4315 1.8644 1.1442 2.4969.045.0399.1126.0399.1576 0 .7127-.6325 1.1222-1.541 1.1442-2.4969.0239-1.039.0635-2.1943.0972-3.1772.0059-.1747.0118-.3439.0172-.5061.0324-.9539.7034-1.8645 1.4687-2.4349.0769-.0573.1535-.1158.2294-.1749 1.0455-.8141 1.9819-1.8172 2.2694-3.1107.2049-.9218.3707-2.2912.3707-4.3094 0-4.44539 1.3989-5.18358 2.077-5.54142.0021-.00111.0043-.00222.0064-.00333.1025-.05414.0648-.15877-.0502-.14351-1.2548.16648-4.5009.88457-4.5009 3.41803v2.27023c0 .1012.0025.2163.0053.3431.0272 1.255.0794 3.664-2.0118 5.2222-.2892.2155-1.1995.9996-1.2014 2.2987-.0019-1.2991-.9123-2.0832-1.2014-2.2987-2.0913-1.5582-2.039-3.9672-2.0118-5.2222.0027-.1268.0052-.2419.0052-.3431v-2.27023c0-2.53346-3.246-3.25155-4.5008-3.41803-.115-.01526-.1528.08937-.0502.14351.0021.00111.0042.00222.0063.00333z"/><path d="m.854497 14.2872c-.001949.0407-.002935.0817-.002935.1229.100961 1.6709.296118 2.8269 1.164428 3.7998.95912.9958 2.23796 1.4937 3.8365 1.4937 1.66585 0 2.97834-.5486 3.93747-1.6456.97594-1.1139 1.46394-2.6245 1.46394-4.5316v-9.43331c0-1.43954.7284-2.76735 1.9116-3.544981.1105-.072641.0613-.251414-.0701-.236431-2.3433.267197-4.16361 2.256852-4.16361 4.671662v8.79616c0 1.2321-.26923 2.1941-.80768 2.8861-.53846.692-1.29567 1.038-2.27162 1.038-.71613 0-1.30561-.1741-1.76847-.5222.47967-.0308.92902-.173 1.32244-.401.04868-.0257.09652-.055.14321-.0884.8265-.5423 1.3723-1.4772 1.3723-2.5395 0-1.6763-1.35891-3.0352-3.0352-3.0352-1.6763 0-3.035208 1.3589-3.035208 3.0352 0 .0451.000985.09.002935.1347z"/><path clip-rule="evenodd" d="m14.0445 10.0629c1.3212-1.52781 3.2051-2.52174 5.225-2.52174 1.1442 0 1.9771.29535 2.4988.88607.5384.57384.8076 1.40085.8076 2.48097v.3048c-1.2432.0075-2.337.0578-3.2812.1509-1.0264.1013-2.0108.3123-2.9531.6329-.9928.3376-1.7416.8355-2.2464 1.4937-.4879.6414-.7319 1.4262-.7319 2.3544 0 .8439.1935 1.5528.5805 2.1266.387.5739.9255 1.0042 1.6154 1.2912.7067.2869 1.5228.4303 2.4483.4303.6394 0 1.2788-.1181 1.9182-.3544s1.2368-.5991 1.7921-1.0886c.3244-.2776.6137-.6013.8678-.9712.0404 1.358 1.0559 2.4142 2.4144 2.4142h.7074c.0762 0 .1084-.0969.0474-.1425-.5672-.424-.9108-1.083-.9288-1.7908-.0146-.5752-.0289-1.2328-.0289-1.611v-5.2911c0-1.0464-.1935-1.9578-.5805-2.73416-.3871-.79325-.976-1.40929-1.7669-1.8481-.7908-.43882-1.7836-.65823-2.9783-.65823-1.0937 0-2.036.18565-2.8269.55696s-1.4219.91139-1.893 1.62025c-.4396.64567-.7401 1.42359-.9013 2.33378-.0101.0569.0604.0898.0982.046.0319-.0369.0639-.074.0961-.1112zm8.5314 3.4529v-.6316c-1.3498.0104-2.4688.0859-3.3569.2266-.9423.135-1.6743.3375-2.1959.6076-.5216.2531-.8834.5569-1.0853.9114-.2019.3544-.3029.7426-.3029 1.1645 0 .6245.2356 1.1139.7067 1.4684.488.3375 1.119.5063 1.893.5063.8245 0 1.5649-.1941 2.2212-.5823.6562-.3882 1.1694-.9029 1.5396-1.5443.387-.6582.5805-1.3671.5805-2.1266z" fill-rule="evenodd"/></g></svg>